<?xml version="1.0" encoding="UTF-8"?>
<svg id="Layer_1" xmlns="http://www.w3.org/2000/svg" xmlns:xlink="http://www.w3.org/1999/xlink" version="1.1" viewBox="0 0 360 360">
  <!-- Generator: Adobe Illustrator 30.2.1, SVG Export Plug-In . SVG Version: 2.1.1 Build 1)  -->
  <defs>
    <style>
      .st0 {
        fill: #d4ac43;
        stroke-width: 1.37px;
      }

      .st0, .st1 {
        stroke: #000;
      }

      .st0, .st1, .st2 {
        stroke-miterlimit: 10;
      }

      .st3 {
        fill: #231f20;
      }

      .st4, .st5, .st2 {
        fill: #b32328;
      }

      .st6 {
        font-size: 62.93px;
      }

      .st6, .st7 {
        fill: #242c61;
        font-family: Broadacre-Thin4, Broadacre;
        font-weight: 200;
      }

      .st8 {
        fill: #fddec4;
      }

      .st1 {
        fill: #5a3926;
        stroke-width: .91px;
      }

      .st5 {
        font-family: FinoSans-Regular, 'Fino Sans';
        font-size: 28.06px;
        text-decoration: underline;
      }

      .st7 {
        font-size: 61.33px;
      }

      .st2 {
        font-family: Helvetica-Bold, Helvetica;
        font-size: 169.56px;
        font-weight: 700;
        stroke: #150000;
        stroke-width: 1.79px;
      }
    </style>
    <path id="path" d="M176.63,335.48c-72.17-.54-130.24-60.52-129.7-133.96.53-73.44,59.47-132.53,131.64-131.99,72.17.54,130.24,60.52,129.7,133.96-.53,73.44-59.47,132.53-131.64,131.99Z"/>
    <path id="path1" d="M103.51,266.01C32.63,226,7.31,134.63,46.94,61.91,86.57-10.8,176.16-37.31,247.03,2.7c70.88,40.01,96.2,131.38,56.57,204.09-39.63,72.71-129.22,99.22-200.09,59.22Z"/>
  </defs>
  <text>
    <textPath xlink:href="#path"><tspan class="st7"><tspan x="0" y="0">QUEEN OF</tspan></tspan>
    </textPath></text>
  <text>
    <textPath startOffset="55.95%" xlink:href="#path1"><tspan class="st6"><tspan x="0" y="0">HEARTS</tspan></tspan>
    </textPath></text>
  <text class="st5" transform="translate(287.99 202.47) scale(1.2 1.18)"><tspan x="0" y="0">1926</tspan></text>
  <text class="st5" transform="translate(21.23 202.47) scale(1.2 1.18)"><tspan x="0" y="0">EST</tspan></text>
  <g>
    <text class="st2" transform="translate(102.83 238.93) scale(.98 1)"><tspan x="0" y="0">Q</tspan></text>
    <ellipse class="st4" cx="167.66" cy="177.78" rx="43.79" ry="54.48"/>
  </g>
  <g>
    <g>
      <path class="st8" d="M219.4,255.92c-11.85-6.58-22.45-15.02-31.48-25.09-6.67-7.44-12.44-15.73-17.15-24.64l-.45-.86.89-.4c1.92-.86,3.62-2.07,5.06-3.62.38-.4.73-.82,1.06-1.26-1.94,1.38-3.95,2.65-6.03,3.79-1.85,1.01-4.15,2.27-7.26,3.31l-.2.07c-2.18.73-6.71,2.25-10.66,2.25-2.94,0-5.04-.85-6.24-2.52-.56-.78-1.73-2.89-1.22-6.46-1.16-.34-2.35-.93-2.5-2.09-.11-.83.39-1.55,1-2.11-1.35-.56-2.07-1.21-2.25-2.02-.15-.66.13-1.23.45-1.57.72-1.17.65-1.71.58-1.89-.06-.17-.2-.26-.28-.29-2.05-.18-3.39-.81-3.98-1.88-.66-1.2-.08-2.38-.02-2.51l.03-.06.04-.05c5.04-7.03,5.41-10.99,5.44-11.74l-1.36-3.09-.02-.13c-.43-3.16-.67-9.43,2.58-15.83,4.98-9.8,14.43-12.91,17.21-13.63l.07-.02,5.7-.53h.07c3.54.24,7.04.92,10.4,2.01,2.97.96,9.14,2.96,14.9,8.43,5.25,5,7.78,10.72,9.39,15.16,4.08,11.21,4.74,19.57,5.32,26.95.4,5.02.77,9.77,2.17,14.81,3.16,11.4,11.05,21.82,23.45,30.98l.81.6-14.89,16.26-.63-.35Z"/>
      <path d="M168.41,141.98c2.57.17,6.13.64,10.18,1.96,3.25,1.05,9.06,3.01,14.55,8.23,5.2,4.95,7.61,10.54,9.16,14.81,6.8,18.7,3.97,29.08,7.47,41.69,2.3,8.32,8.01,19.82,23.79,31.47-4.57,4.99-9.15,9.99-13.72,14.98-8.45-4.69-20.09-12.47-31.24-24.91-7.86-8.76-13.3-17.41-17.02-24.45,1.28-.57,3.37-1.7,5.35-3.83,1.85-1.99,2.83-4.02,3.34-5.32-2.16,1.81-5.31,4.18-9.42,6.43-1.94,1.06-4.15,2.26-7.11,3.25-2.02.67-6.64,2.27-10.57,2.27-2.3,0-4.35-.55-5.5-2.14-.33-.46-1.75-2.56-.92-6.61-5.64-1.22-.49-3.81-.49-3.81-4.84-1.28-3.13-2.72-3.13-2.72,1.97-3.1-.22-3.66-.22-3.66-4.79-.37-3.38-3.06-3.38-3.06,5.94-8.29,5.6-12.47,5.6-12.47l-1.39-3.14c-.34-2.46-.85-8.71,2.49-15.3,5.07-10,14.98-12.74,16.62-13.16,1.85-.17,3.7-.34,5.55-.51M168.39,140.15h-.15s-.75.08-.75.08l-4.8.44h-.15s-.14.05-.14.05c-2.87.74-12.64,3.96-17.79,14.1-3.36,6.63-3.11,13.1-2.67,16.37l.03.25.1.23,1.23,2.78c-.08.92-.67,4.64-5.26,11.04l-.07.1-.06.11c-.41.79-.65,2.14.02,3.37.68,1.23,2.07,2,4.12,2.28-.06.18-.17.44-.38.79-.45.52-.82,1.35-.6,2.31.21.93.86,1.61,1.69,2.12-.35.55-.55,1.2-.46,1.92.18,1.4,1.33,2.17,2.41,2.6-.3,3.46.89,5.56,1.47,6.37,1.39,1.92,3.74,2.89,6.98,2.89,4.1,0,8.72-1.55,10.95-2.3l.2-.07c2.06-.69,3.76-1.47,5.22-2.21l.43.81c4.74,8.97,10.55,17.33,17.27,24.82,9.1,10.15,19.77,18.65,31.71,25.28l1.26.7.97-1.06,13.72-14.98,1.37-1.49-1.63-1.2c-12.24-9.04-20.02-19.3-23.12-30.49-1.37-4.96-1.74-9.66-2.14-14.64-.59-7.43-1.25-15.86-5.37-27.19-1.65-4.53-4.23-10.38-9.62-15.51-5.91-5.61-12.21-7.66-15.25-8.64-3.43-1.11-7-1.8-10.62-2.04h-.15Z"/>
    </g>
    <path class="st1" d="M146.05,155.66c2.11,11.81,6.71,16.91,10.49,19.38,12.02,7.85,23.48,2.64,31.23,12.06,6.48,7.87,4.8,20.8,4.57,22.43-1.26,8.87-5.42,10.71-3.98,16.96,1.36,5.9,6.55,10.64,10.69,14.43,1.6,1.46,3.68,3,5.72,4.56,3.3,2.52,6.11,4.5,8.08,5.85,2.26,1.53,4.52,3.05,6.79,4.58,2.31-2.66,4.72-5.37,7.22-8.1,2.54-2.76,5.05-5.42,7.54-7.97-2.89-2.14-14.24-10.7-18.6-17.79-.47-.77-.92-1.55-.92-1.55-1.27-2.26-3.56-6.58-4.97-12.62-1.54-6.62-.74-10.71-1.93-18.87-.33-2.25-.73-4.62-1.24-7.29-.2-1.03-.4-1.96-.6-2.88-3.48-15.67-7.12-20.99-9.6-23.97-5.44-6.51-11.52-9.34-12.94-9.97-9.15-4.07-23.65-5.59-32.38,2.83-2.87,2.77-4.37,5.88-5.16,7.95Z"/>
    <path class="st0" d="M133.66,121.41l20.15,26.52s16.12,4.65,30.62-.82l20.15-28.16-26.6,10.93-8.06-17.5-8.6,16.95-27.67-7.93Z"/>
    <path class="st3" d="M147.26,171.99c-.16.35-.64,1.47-.29,2.81.08.3.29,1.11.96,1.73,1.3,1.2,2.8.27,4.65,1.39.72.43,1.12.95,1.52,1.47.03.04.49.46.49.46h0s-.17-2.29-1.38-3.42c-.35-.33-1.44-.7-3.66-1.25-.79-.2-1.39-.3-1.84-.83-.61-.71-.55-1.74-.45-2.37Z"/>
  </g>
</svg>